# xmcd
#
# Track frame offsets:
#	150
#	14100
#	32193
#	50689
#	68574
#	87995
#	105954
#	118467
#	136216
#	164058
#	184346
#	197364
#	211056
#	223252
#	241862
#	256505
#	271900
#	297857
#	317416
#	334540
#	345361
#
# Disc length: 4784 seconds
#
# Revision: 1
# Processed by: cddbd v1.5.2PL0 Copyright (c) Steve Scherf et al.
# Submitted via: EasyCDDAExtractor 2010.6.0.0
#
DISCID=3312ae15
DTITLE=Various Artist - Akella Presents - Country-Blues - vol.30  CD2
DYEAR=2011
DGENRE=Blues
TTITLE0=GORDIE TENTREES - Alfred
TTITLE1=WALTER TROUT - All My Life
TTITLE2=HANK SHIZZO - Zoo
TTITLE3=HANS THESSINK - Cry cry cry
TTITLE4=MARK KNOPFLER - We Can Get Wild
TTITLE5=BIG HOUSE - Hey Jenny
TTITLE6=J.J. CALE - Since You Said Goodbye
TTITLE7=TAB BENOIT - Sac-Au-Lait Fishing
TTITLE8=JOHN MELLENCAMP - No One Cares About Me
TTITLE9=GREG HARRIS - Line In the Water
TTITLE10=CHRIS ISAAK - Only the Lonely
TTITLE11=The RADIO KINGS - She Belongs To Me
TTITLE12=BRIAN KRAMER and THE COUCH LIZARDS - Ada
TTITLE13=BIG ED SULLIVAN - One Piece At A Time
TTITLE14=JOHN CAMPBELLJOHN - Martha Mae
TTITLE15=DANNY SHIRLEY - Cheap Thrills
TTITLE16=The UNDERDOGS - Bye-Bye
TTITLE17=JOHN FOGERTY - I Saw It On T.V.
TTITLE18=DIRE STRAITS - How Long
TTITLE19=ALBERT LEE and HOGAN'S HEROES - Take Your Time
TTITLE20=DELTA MOON - You Got To Move
EXTD=
EXTT0=
EXTT1=
EXTT2=
EXTT3=
EXTT4=
EXTT5=
EXTT6=
EXTT7=
EXTT8=
EXTT9=
EXTT10=
EXTT11=
EXTT12=
EXTT13=
EXTT14=
EXTT15=
EXTT16=
EXTT17=
EXTT18=
EXTT19=
EXTT20=
PLAYORDER=
